<svg xmlns="http://www.w3.org/2000/svg" version="1.1" xmlns:xlink="http://www.w3.org/1999/xlink" xmlns:svgjs="http://svgjs.com/svgjs" width="1440" height="560" preserveAspectRatio="none" viewBox="0 0 1440 560"><g mask="url(&quot;#SvgjsMask1000&quot;)" fill="none"><rect width="67.6" height="67.6" clip-path="url(&quot;#SvgjsClipPath1001&quot;)" x="-2.21" y="490.14" fill="url(#SvgjsPattern1002)" transform="rotate(170.35, 31.59, 523.94)"></rect><rect width="101.4" height="101.4" clip-path="url(&quot;#SvgjsClipPath1003&quot;)" x="805.44" y="-49.62" fill="url(#SvgjsPattern1004)" transform="rotate(331.32, 856.14, 1.08)"></rect><path d="M225.31 561.05a5.6 5.6 0 1 0-10.85-2.8 5.6 5.6 0 1 0 10.85 2.8zM209.81 557.05a5.6 5.6 0 1 0-10.84-2.8 5.6 5.6 0 1 0 10.84 2.8zM194.32 553.05a5.6 5.6 0 1 0-10.84-2.8 5.6 5.6 0 1 0 10.84 2.8zM178.83 549.05a5.6 5.6 0 1 0-10.85-2.79 5.6 5.6 0 1 0 10.85 2.79zM260.29 553.55a5.6 5.6 0 1 0-10.84-2.8 5.6 5.6 0 1 0 10.84 2.8zM244.8 549.55a5.6 5.6 0 1 0-10.85-2.8 5.6 5.6 0 1 0 10.85 2.8zM229.3 545.56a5.6 5.6 0 1 0-10.84-2.8 5.6 5.6 0 1 0 10.84 2.8zM213.81 541.56a5.6 5.6 0 1 0-10.84-2.8 5.6 5.6 0 1 0 10.84 2.8zM295.27 546.05a5.6 5.6 0 1 0-10.84-2.79 5.6 5.6 0 1 0 10.84 2.79zM279.78 542.06a5.6 5.6 0 1 0-10.84-2.8 5.6 5.6 0 1 0 10.84 2.8zM264.29 538.06a5.6 5.6 0 1 0-10.85-2.8 5.6 5.6 0 1 0 10.85 2.8zM248.8 534.06a5.6 5.6 0 1 0-10.85-2.8 5.6 5.6 0 1 0 10.85 2.8z" fill="rgba(20, 211, 100, 0.49)"></path><path d="M1271.52 145.97L1275.04 133.65 1287.82 134.38 1291.34 122.07 1304.13 122.8 1307.65 110.49 1320.43 111.22" stroke="rgba(32, 147, 39, 0.35)" stroke-width="1.05" stroke-dasharray="4, 4"></path><path d="M397.98 235.93 L337.73 221.06L324.37539775420515 271.97460224579487z" fill="rgba(20, 211, 100, 0.49)"></path><rect width="252.12" height="252.12" clip-path="url(&quot;#SvgjsClipPath1005&quot;)" x="576.99" y="3.79" fill="url(#SvgjsPattern1006)" transform="rotate(311.19, 703.05, 129.85)"></rect><rect width="264" height="264" clip-path="url(&quot;#SvgjsClipPath1007&quot;)" x="981.23" y="169.28" fill="url(#SvgjsPattern1008)" transform="rotate(96.82, 1113.23, 301.28)"></rect><path d="M737.11 79.86a5.6 5.6 0 1 0-11.02 1.98 5.6 5.6 0 1 0 11.02-1.98zM721.37 82.69a5.6 5.6 0 1 0-11.03 1.99 5.6 5.6 0 1 0 11.03-1.99zM705.62 85.53a5.6 5.6 0 1 0-11.02 1.98 5.6 5.6 0 1 0 11.02-1.98zM689.87 88.36a5.6 5.6 0 1 0-11.02 1.98 5.6 5.6 0 1 0 11.02-1.98zM765.77 58.44a5.6 5.6 0 1 0-11.02 1.99 5.6 5.6 0 1 0 11.02-1.99zM750.03 61.28a5.6 5.6 0 1 0-11.03 1.98 5.6 5.6 0 1 0 11.03-1.98zM734.28 64.11a5.6 5.6 0 1 0-11.02 1.98 5.6 5.6 0 1 0 11.02-1.98zM718.53 66.94a5.6 5.6 0 1 0-11.02 1.99 5.6 5.6 0 1 0 11.02-1.99z" stroke="rgba(20, 211, 100, 0.49)" stroke-width="1.01" stroke-dasharray="3, 2"></path><path d="M-2.34 501.13a5.6 5.6 0 1 0 4.98 10.04 5.6 5.6 0 1 0-4.98-10.04zM4.78 515.46a5.6 5.6 0 1 0 4.98 10.04 5.6 5.6 0 1 0-4.98-10.04zM11.9 529.8a5.6 5.6 0 1 0 4.98 10.03 5.6 5.6 0 1 0-4.98-10.03zM19.01 544.13a5.6 5.6 0 1 0 4.98 10.03 5.6 5.6 0 1 0-4.98-10.03zM-30.9 479.59a5.6 5.6 0 1 0 4.98 10.03 5.6 5.6 0 1 0-4.98-10.03zM-23.78 493.92a5.6 5.6 0 1 0 4.98 10.03 5.6 5.6 0 1 0-4.98-10.03zM-16.67 508.25a5.6 5.6 0 1 0 4.98 10.03 5.6 5.6 0 1 0-4.98-10.03zM-9.55 522.58a5.6 5.6 0 1 0 4.98 10.03 5.6 5.6 0 1 0-4.98-10.03z" stroke="rgba(32, 147, 39, 0.35)" stroke-width="1" stroke-dasharray="2, 2"></path><path d="M406.3 9.63L414.64 19.35 406.99 29.62 415.33 39.34 407.68 49.61 416.02 59.32 408.37 69.59" stroke="rgba(32, 147, 39, 0.35)" stroke-width="1.78" stroke-dasharray="2, 2"></path><rect width="156" height="156" clip-path="url(&quot;#SvgjsClipPath1009&quot;)" x="140.86" y="259.15" fill="url(#SvgjsPattern1010)" transform="rotate(87.34, 218.86, 337.15)"></rect><circle r="46.666666666666664" cx="1249.62" cy="232.5" stroke="rgba(32, 147, 39, 0.35)" stroke-width="1.32" stroke-dasharray="3, 3"></circle></g><defs><mask id="SvgjsMask1000"><rect width="1440" height="560" fill="#ffffff"></rect></mask><pattern x="0" y="0" width="67.6" height="6.76" patternUnits="userSpaceOnUse" id="SvgjsPattern1002"><rect width="67.6" height="3.38" x="0" y="0" fill="rgba(20, 211, 100, 0.49)"></rect><rect width="67.6" height="3.38" x="0" y="3.38" fill="rgba(0, 0, 0, 0)"></rect></pattern><clipPath id="SvgjsClipPath1001"><circle r="16.9" cx="31.59" cy="523.94"></circle></clipPath><pattern x="0" y="0" width="10.14" height="10.14" patternUnits="userSpaceOnUse" id="SvgjsPattern1004"><path d="M0 10.14L5.07 0L10.14 10.14" stroke="rgba(32, 147, 39, 0.35)" fill="none"></path></pattern><clipPath id="SvgjsClipPath1003"><circle r="25.35" cx="856.14" cy="1.08"></circle></clipPath><pattern x="0" y="0" width="11.46" height="11.46" patternUnits="userSpaceOnUse" id="SvgjsPattern1006"><path d="M0 11.46L5.73 0L11.46 11.46" stroke="rgba(20, 211, 100, 0.49)" fill="none"></path></pattern><clipPath id="SvgjsClipPath1005"><circle r="63.03" cx="703.05" cy="129.85"></circle></clipPath><pattern x="0" y="0" width="6" height="6" patternUnits="userSpaceOnUse" id="SvgjsPattern1008"><path d="M3 1L3 5M1 3L5 3" stroke="rgba(32, 147, 39, 0.35)" fill="none" stroke-width="1"></path></pattern><clipPath id="SvgjsClipPath1007"><circle r="66" cx="1113.23" cy="301.28"></circle></clipPath><pattern x="0" y="0" width="6" height="6" patternUnits="userSpaceOnUse" id="SvgjsPattern1010"><path d="M0 6L3 0L6 6" stroke="rgba(32, 147, 39, 0.35)" fill="none"></path></pattern><clipPath id="SvgjsClipPath1009"><circle r="39" cx="218.86" cy="337.15"></circle></clipPath></defs></svg>