<svg xmlns="http://www.w3.org/2000/svg" version="1.1" xmlns:xlink="http://www.w3.org/1999/xlink" xmlns:svgjs="http://svgjs.com/svgjs" width="1440" height="560" preserveAspectRatio="none" viewBox="0 0 1440 560"><g mask="url(&quot;#SvgjsMask1000&quot;)" fill="none"><path d="M986.42 446.67L1003.2 446.67L1003.2 463.45L986.42 463.45z" fill="rgba(231, 54, 53, 0.32)"></path><path d="M655.21 451.57a0.46 0.46 0 1 0-0.88 0.28z" stroke="rgba(231, 54, 53, 0.32)"></path><path d="M1194.93 447.81 a29.92 29.92 0 1 0 59.84 0 a29.92 29.92 0 1 0 -59.84 0z" stroke="rgba(231, 54, 53, 0.32)"></path><path d="M1413.31 400.45L1438.42 400.45L1438.42 442.01L1413.31 442.01z" fill="rgba(47, 184, 133, 0.23)"></path><path d="M1293.52 465.13 a52.83 52.83 0 1 0 105.66 0 a52.83 52.83 0 1 0 -105.66 0z" fill="rgba(47, 184, 133, 0.29)"></path><path d="M236.3 89.47a47.54 47.54 0 1 0-44.63 83.96z" stroke="rgba(47, 184, 133, 0.23)"></path><path d="M1187.21 247.03a25.35 25.35 0 1 0 26.84 43.01z" fill="rgba(47, 184, 133, 0.29)"></path><path d="M489.46 88.2L489.74 88.2L489.74 132.78L489.46 132.78z" fill="rgba(47, 184, 133, 0.23)"></path><path d="M1267.8 473.63L1281.19 473.63L1281.19 487.02L1267.8 487.02z" fill="rgba(231, 54, 53, 0.32)"></path><path d="M755.59 2.2L797.99 2.2L797.99 44.6L755.59 44.6z" fill="rgba(231, 54, 53, 0.32)"></path><path d="M862.82 364.28a37.95 37.95 0 1 0 67.28 35.12z" fill="rgba(231, 54, 53, 0.32)"></path><path d="M106.18 515.36L149.37 515.36L149.37 558.55L106.18 558.55z" fill="rgba(47, 184, 133, 0.29)"></path><path d="M649.62 230.32L675.62 230.32L675.62 256.32L649.62 256.32z" fill="rgba(231, 54, 53, 0.32)"></path><path d="M1077.06 473.81L1082.56 473.81L1082.56 473.83L1077.06 473.83z" stroke="rgba(47, 184, 133, 0.29)"></path><path d="M681.09 368.28L726.42 368.28L726.42 413.61L681.09 413.61z" stroke="rgba(231, 54, 53, 0.32)"></path><path d="M675.62 500.03L706.01 500.03L706.01 520.35L675.62 520.35z" fill="rgba(231, 54, 53, 0.32)"></path><path d="M921.95 398.86L961.91 398.86L961.91 438.82L921.95 438.82z" fill="rgba(47, 184, 133, 0.29)"></path><path d="M603.81 105.63L653.92 105.63L653.92 141.06L603.81 141.06z" fill="rgba(47, 184, 133, 0.23)"></path><path d="M463.56 125.49L499.41 125.49L499.41 179.71L463.56 179.71z" fill="rgba(47, 184, 133, 0.29)"></path><path d="M445.28 257.09 a24.12 24.12 0 1 0 48.24 0 a24.12 24.12 0 1 0 -48.24 0z" stroke="rgba(47, 184, 133, 0.23)"></path><path d="M134.25 91a40.21 40.21 0 1 0 5.88-80.21z" fill="rgba(47, 184, 133, 0.29)"></path><path d="M503.79 82.27 a52.9 52.9 0 1 0 105.8 0 a52.9 52.9 0 1 0 -105.8 0z" fill="rgba(47, 184, 133, 0.23)"></path><path d="M415.99 183.91L428.97 183.91L428.97 205.21L415.99 205.21z" fill="rgba(47, 184, 133, 0.23)"></path><path d="M908.49 350.54L932.65 350.54L932.65 381.42L908.49 381.42z" stroke="rgba(231, 54, 53, 0.32)"></path><path d="M555.71 355.36L582.55 355.36L582.55 376.05L555.71 376.05z" fill="rgba(47, 184, 133, 0.29)"></path><path d="M0.16 405.23L48.8 405.23L48.8 453.87L0.16 453.87z" stroke="rgba(47, 184, 133, 0.29)"></path><path d="M714.48 476.95L731.63 476.95L731.63 494.02L714.48 494.02z" stroke="rgba(47, 184, 133, 0.23)"></path><path d="M1189.94 91.66L1231.15 91.66L1231.15 123.5L1189.94 123.5z" stroke="rgba(47, 184, 133, 0.23)"></path><path d="M736.32 536.71L749.66 536.71L749.66 559.55L736.32 559.55z" stroke="rgba(47, 184, 133, 0.29)"></path><path d="M-9.03-5.13a55.78 55.78 0 1 0 56.64 96.11z" fill="rgba(47, 184, 133, 0.23)"></path><path d="M875.26 302.28 a12.55 12.55 0 1 0 25.1 0 a12.55 12.55 0 1 0 -25.1 0z" fill="rgba(231, 54, 53, 0.32)"></path><path d="M1150.15 508.29a39.09 39.09 0 1 0 76.8-14.58z" fill="rgba(47, 184, 133, 0.23)"></path><path d="M537.93 204.65a14.94 14.94 0 1 0 8.23-28.72z" stroke="rgba(231, 54, 53, 0.32)"></path></g><defs><mask id="SvgjsMask1000"><rect width="1440" height="560" fill="#ffffff"></rect></mask></defs></svg>