<svg xmlns="http://www.w3.org/2000/svg" version="1.1" xmlns:xlink="http://www.w3.org/1999/xlink" xmlns:svgjs="http://svgjs.com/svgjs" width="1440" height="560" preserveAspectRatio="none" viewBox="0 0 1440 560"><g mask="url(&quot;#SvgjsMask1010&quot;)" fill="none"><path d="M1611.8 373.59C1485.45 368.06 1403.92 163.53 1155.48 155.19 907.04 146.85 821.42-18.09 699.16-21.12" stroke="rgba(47, 184, 133, 0.32)" stroke-width="2"></path><path d="M1457 70.23C1303.33 74.48 1173.38 300 886.55 299.83 599.73 299.66 482.97-37.33 316.11-51" stroke="rgba(47, 184, 133, 0.32)" stroke-width="2"></path><path d="M1503.25 351.02C1389.92 354.08 1311.22 526.63 1082.04 519.02 852.85 511.41 820.51 44.75 660.82-11.85" stroke="rgba(47, 184, 133, 0.32)" stroke-width="2"></path><path d="M1496.14 185.04C1324.92 188.96 1180.42 426.71 854.79 425.84 529.16 424.97 410.37-17.52 213.44-41.41" stroke="rgba(47, 184, 133, 0.32)" stroke-width="2"></path><path d="M1450.11 236.03C1297.66 239.73 1175.97 457.3 880.55 454.43 585.14 451.56 501.98-39.08 311-78.36" stroke="rgba(47, 184, 133, 0.32)" stroke-width="2"></path></g><defs><mask id="SvgjsMask1010"><rect width="1440" height="560" fill="#ffffff"></rect></mask></defs></svg>